<svg xmlns="http://www.w3.org/2000/svg" width="1080" height="1080" viewBox="0 0 1080 1080"><rect x="0.0" y="0.0" width="1080.0" height="1080.0" fill="#F8FAFC" rx="0" /><text x="36" y="74" font-family="IBM Plex Sans Thai" font-size="46" font-weight="700"><tspan fill="#102A43">Shift</tspan><tspan fill="#14B8A6">Work</tspan></text><text x="36.0" y="128.0" font-family="IBM Plex Sans Thai" font-size="40" font-weight="700" fill="#102A43" text-anchor="start">แพ็กเกจราคา</text><text x="36.0" y="166.0" font-family="IBM Plex Sans Thai" font-size="22" font-weight="400" fill="#1F2937" text-anchor="start">จัดเวรที่ยุติธรรมใน 5 นาที — ทํางานน้อยลง</text><rect x="614.0" y="96.0" width="430.0" height="44.0" fill="#E6FAF6" rx="22" /><text x="829.0" y="125.0" font-family="IBM Plex Sans Thai" font-size="20" font-weight="600" fill="#0F9488" text-anchor="middle">ราคาต่อวอร์ด / เดือน · รายปีประหยัด ~17%</text><rect x="655.2" y="186.0" width="129.6" height="870.0" fill="#E6FAF6" rx="16" /><text x="460.8" y="224.0" font-family="IBM Plex Sans Thai" font-size="25" font-weight="700" fill="#102A43" text-anchor="middle">Free</text><text x="460.8" y="264.0" font-family="IBM Plex Sans Thai" font-size="34" font-weight="700" fill="#102A43" text-anchor="middle">฿0</text><text x="460.8" y="284.0" font-family="IBM Plex Sans Thai" font-size="14" font-weight="400" fill="#94A3B8" text-anchor="middle">/เดือน</text><text x="460.8" y="308.0" font-family="IBM Plex Sans Thai" font-size="16" font-weight="400" fill="#94A3B8" text-anchor="middle">ไม่เกิน 8 คน</text><rect x="420.7" y="322.0" width="80.2" height="26.0" fill="#E6FAF6" rx="13" /><text x="460.8" y="340.0" font-family="IBM Plex Sans Thai" font-size="14" font-weight="600" fill="#0F9488" text-anchor="middle">ฟรีตลอด</text><text x="590.4" y="224.0" font-family="IBM Plex Sans Thai" font-size="25" font-weight="700" fill="#102A43" text-anchor="middle">Ward</text><text x="590.4" y="264.0" font-family="IBM Plex Sans Thai" font-size="34" font-weight="700" fill="#0F9488" text-anchor="middle">฿390</text><text x="590.4" y="284.0" font-family="IBM Plex Sans Thai" font-size="14" font-weight="400" fill="#94A3B8" text-anchor="middle">/เดือน</text><text x="590.4" y="308.0" font-family="IBM Plex Sans Thai" font-size="16" font-weight="400" fill="#94A3B8" text-anchor="middle">ไม่เกิน 15 คน</text><rect x="533.1" y="322.0" width="114.6" height="26.0" fill="#E6FAF6" rx="13" /><text x="590.4" y="340.0" font-family="IBM Plex Sans Thai" font-size="14" font-weight="600" fill="#0F9488" text-anchor="middle">ปีละ ฿3,900</text><rect x="661.2" y="186.0" width="117.6" height="34.0" fill="#14B8A6" rx="14" /><text x="720.0" y="209.0" font-family="IBM Plex Sans Thai" font-size="17" font-weight="700" fill="#FFFFFF" text-anchor="middle">ยอดนิยม</text><text x="720.0" y="246.0" font-family="IBM Plex Sans Thai" font-size="25" font-weight="700" fill="#102A43" text-anchor="middle">Ward+</text><text x="720.0" y="286.0" font-family="IBM Plex Sans Thai" font-size="34" font-weight="700" fill="#0F9488" text-anchor="middle">฿690</text><text x="720.0" y="306.0" font-family="IBM Plex Sans Thai" font-size="14" font-weight="400" fill="#94A3B8" text-anchor="middle">/เดือน</text><text x="720.0" y="330.0" font-family="IBM Plex Sans Thai" font-size="16" font-weight="400" fill="#94A3B8" text-anchor="middle">ไม่เกิน 25 คน</text><rect x="662.7" y="344.0" width="114.6" height="26.0" fill="#FFFFFF" rx="13" /><text x="720.0" y="362.0" font-family="IBM Plex Sans Thai" font-size="14" font-weight="600" fill="#0F9488" text-anchor="middle">ปีละ ฿6,900</text><text x="849.6" y="224.0" font-family="IBM Plex Sans Thai" font-size="20" font-weight="700" fill="#102A43" text-anchor="middle">Ward Pro</text><text x="849.6" y="264.0" font-family="IBM Plex Sans Thai" font-size="34" font-weight="700" fill="#0F9488" text-anchor="middle">฿1,290</text><text x="849.6" y="284.0" font-family="IBM Plex Sans Thai" font-size="14" font-weight="400" fill="#94A3B8" text-anchor="middle">/เดือน</text><text x="849.6" y="308.0" font-family="IBM Plex Sans Thai" font-size="16" font-weight="400" fill="#94A3B8" text-anchor="middle">ไม่เกิน 40 คน</text><rect x="788.0" y="322.0" width="123.2" height="26.0" fill="#E6FAF6" rx="13" /><text x="849.6" y="340.0" font-family="IBM Plex Sans Thai" font-size="14" font-weight="600" fill="#0F9488" text-anchor="middle">ปีละ ฿12,900</text><text x="979.2" y="224.0" font-family="IBM Plex Sans Thai" font-size="20" font-weight="700" fill="#102A43" text-anchor="middle">Department</text><text x="979.2" y="264.0" font-family="IBM Plex Sans Thai" font-size="24" font-weight="700" fill="#0F9488" text-anchor="middle">เริ่ม ฿2,900</text><text x="979.2" y="284.0" font-family="IBM Plex Sans Thai" font-size="14" font-weight="400" fill="#94A3B8" text-anchor="middle">/เดือน</text><text x="979.2" y="308.0" font-family="IBM Plex Sans Thai" font-size="16" font-weight="400" fill="#94A3B8" text-anchor="middle">หลายวอร์ด</text><rect x="917.6" y="322.0" width="123.2" height="26.0" fill="#E6FAF6" rx="13" /><text x="979.2" y="340.0" font-family="IBM Plex Sans Thai" font-size="14" font-weight="600" fill="#0F9488" text-anchor="middle">ปีละ ฿29,000</text><line x1="36" y1="378" x2="1044" y2="378" stroke="#E5E7EB" stroke-width="2"/><text x="36.0" y="410.0" font-family="IBM Plex Sans Thai" font-size="18" font-weight="500" fill="#1F2937" text-anchor="start">สร้างตารางเวรอัตโนมัติ</text><path d="M 451.8 403.8 l 6 6 l 12 -14" stroke="#0F9488" stroke-width="3.4" fill="none" stroke-linecap="round" stroke-linejoin="round"/><path d="M 581.4 403.8 l 6 6 l 12 -14" stroke="#0F9488" stroke-width="3.4" fill="none" stroke-linecap="round" stroke-linejoin="round"/><path d="M 711.0 403.8 l 6 6 l 12 -14" stroke="#0F9488" stroke-width="3.4" fill="none" stroke-linecap="round" stroke-linejoin="round"/><path d="M 840.6 403.8 l 6 6 l 12 -14" stroke="#0F9488" stroke-width="3.4" fill="none" stroke-linecap="round" stroke-linejoin="round"/><path d="M 970.2 403.8 l 6 6 l 12 -14" stroke="#0F9488" stroke-width="3.4" fill="none" stroke-linecap="round" stroke-linejoin="round"/><rect x="36.0" y="429.7" width="1008.0" height="51.7" fill="#FFFFFF" rx="0" /><text x="36.0" y="461.3" font-family="IBM Plex Sans Thai" font-size="17" font-weight="500" fill="#1F2937" text-anchor="start">กฎจัดเวรพื้นฐาน (อาวุโส/สลับเวร/สมดุล)</text><path d="M 451.8 455.5 l 6 6 l 12 -14" stroke="#0F9488" stroke-width="3.4" fill="none" stroke-linecap="round" stroke-linejoin="round"/><path d="M 581.4 455.5 l 6 6 l 12 -14" stroke="#0F9488" stroke-width="3.4" fill="none" stroke-linecap="round" stroke-linejoin="round"/><path d="M 711.0 455.5 l 6 6 l 12 -14" stroke="#0F9488" stroke-width="3.4" fill="none" stroke-linecap="round" stroke-linejoin="round"/><path d="M 840.6 455.5 l 6 6 l 12 -14" stroke="#0F9488" stroke-width="3.4" fill="none" stroke-linecap="round" stroke-linejoin="round"/><path d="M 970.2 455.5 l 6 6 l 12 -14" stroke="#0F9488" stroke-width="3.4" fill="none" stroke-linecap="round" stroke-linejoin="round"/><text x="36.0" y="514.0" font-family="IBM Plex Sans Thai" font-size="20" font-weight="500" fill="#1F2937" text-anchor="start">จํานวนตารางต่อเดือน</text><text x="460.8" y="513.0" font-family="IBM Plex Sans Thai" font-size="17" font-weight="600" fill="#1F2937" text-anchor="middle">1</text><text x="590.4" y="512.0" font-family="IBM Plex Sans Thai" font-size="14" font-weight="600" fill="#102A43" text-anchor="middle">ไม่จํากัด</text><text x="720.0" y="512.0" font-family="IBM Plex Sans Thai" font-size="14" font-weight="600" fill="#102A43" text-anchor="middle">ไม่จํากัด</text><text x="849.6" y="512.0" font-family="IBM Plex Sans Thai" font-size="14" font-weight="600" fill="#102A43" text-anchor="middle">ไม่จํากัด</text><text x="979.2" y="512.0" font-family="IBM Plex Sans Thai" font-size="14" font-weight="600" fill="#102A43" text-anchor="middle">ไม่จํากัด</text><rect x="36.0" y="533.1" width="1008.0" height="51.7" fill="#FFFFFF" rx="0" /><text x="36.0" y="565.0" font-family="IBM Plex Sans Thai" font-size="18" font-weight="500" fill="#1F2937" text-anchor="start">คําขอเวร &amp; วันหยุดของพยาบาล</text><text x="460.8" y="564.7" font-family="IBM Plex Sans Thai" font-size="17" font-weight="500" fill="#1F2937" text-anchor="middle">จํากัด</text><path d="M 581.4 558.9 l 6 6 l 12 -14" stroke="#0F9488" stroke-width="3.4" fill="none" stroke-linecap="round" stroke-linejoin="round"/><path d="M 711.0 558.9 l 6 6 l 12 -14" stroke="#0F9488" stroke-width="3.4" fill="none" stroke-linecap="round" stroke-linejoin="round"/><path d="M 840.6 558.9 l 6 6 l 12 -14" stroke="#0F9488" stroke-width="3.4" fill="none" stroke-linecap="round" stroke-linejoin="round"/><path d="M 970.2 558.9 l 6 6 l 12 -14" stroke="#0F9488" stroke-width="3.4" fill="none" stroke-linecap="round" stroke-linejoin="round"/><text x="36.0" y="617.4" font-family="IBM Plex Sans Thai" font-size="20" font-weight="500" fill="#1F2937" text-anchor="start">รองรับวันประชุม</text><line x1="452.8" y1="610.6" x2="468.8" y2="610.6" stroke="#94A3B8" stroke-width="3" stroke-linecap="round"/><path d="M 581.4 610.6 l 6 6 l 12 -14" stroke="#0F9488" stroke-width="3.4" fill="none" stroke-linecap="round" stroke-linejoin="round"/><path d="M 711.0 610.6 l 6 6 l 12 -14" stroke="#0F9488" stroke-width="3.4" fill="none" stroke-linecap="round" stroke-linejoin="round"/><path d="M 840.6 610.6 l 6 6 l 12 -14" stroke="#0F9488" stroke-width="3.4" fill="none" stroke-linecap="round" stroke-linejoin="round"/><path d="M 970.2 610.6 l 6 6 l 12 -14" stroke="#0F9488" stroke-width="3.4" fill="none" stroke-linecap="round" stroke-linejoin="round"/><rect x="36.0" y="636.5" width="1008.0" height="51.7" fill="#FFFFFF" rx="0" /><text x="36.0" y="669.1" font-family="IBM Plex Sans Thai" font-size="20" font-weight="500" fill="#1F2937" text-anchor="start">ส่งออกไม่มีลายน้ํา</text><text x="460.8" y="667.4" font-family="IBM Plex Sans Thai" font-size="15" font-weight="500" fill="#1F2937" text-anchor="middle">ลายน้ํา</text><path d="M 581.4 662.3 l 6 6 l 12 -14" stroke="#0F9488" stroke-width="3.4" fill="none" stroke-linecap="round" stroke-linejoin="round"/><path d="M 711.0 662.3 l 6 6 l 12 -14" stroke="#0F9488" stroke-width="3.4" fill="none" stroke-linecap="round" stroke-linejoin="round"/><path d="M 840.6 662.3 l 6 6 l 12 -14" stroke="#0F9488" stroke-width="3.4" fill="none" stroke-linecap="round" stroke-linejoin="round"/><path d="M 970.2 662.3 l 6 6 l 12 -14" stroke="#0F9488" stroke-width="3.4" fill="none" stroke-linecap="round" stroke-linejoin="round"/><text x="36.0" y="720.1" font-family="IBM Plex Sans Thai" font-size="18" font-weight="500" fill="#1F2937" text-anchor="start">ประวัติ &amp; เวอร์ชันตาราง</text><line x1="452.8" y1="714.0" x2="468.8" y2="714.0" stroke="#94A3B8" stroke-width="3" stroke-linecap="round"/><line x1="582.4" y1="714.0" x2="598.4" y2="714.0" stroke="#94A3B8" stroke-width="3" stroke-linecap="round"/><path d="M 711.0 714.0 l 6 6 l 12 -14" stroke="#0F9488" stroke-width="3.4" fill="none" stroke-linecap="round" stroke-linejoin="round"/><path d="M 840.6 714.0 l 6 6 l 12 -14" stroke="#0F9488" stroke-width="3.4" fill="none" stroke-linecap="round" stroke-linejoin="round"/><path d="M 970.2 714.0 l 6 6 l 12 -14" stroke="#0F9488" stroke-width="3.4" fill="none" stroke-linecap="round" stroke-linejoin="round"/><rect x="36.0" y="739.8" width="1008.0" height="51.7" fill="#FFFFFF" rx="0" /><text x="36.0" y="771.5" font-family="IBM Plex Sans Thai" font-size="17" font-weight="500" fill="#1F2937" text-anchor="start">รายงานความยุติธรรม / ภาระงาน</text><line x1="452.8" y1="765.7" x2="468.8" y2="765.7" stroke="#94A3B8" stroke-width="3" stroke-linecap="round"/><line x1="582.4" y1="765.7" x2="598.4" y2="765.7" stroke="#94A3B8" stroke-width="3" stroke-linecap="round"/><path d="M 711.0 765.7 l 6 6 l 12 -14" stroke="#0F9488" stroke-width="3.4" fill="none" stroke-linecap="round" stroke-linejoin="round"/><path d="M 840.6 765.7 l 6 6 l 12 -14" stroke="#0F9488" stroke-width="3.4" fill="none" stroke-linecap="round" stroke-linejoin="round"/><path d="M 970.2 765.7 l 6 6 l 12 -14" stroke="#0F9488" stroke-width="3.4" fill="none" stroke-linecap="round" stroke-linejoin="round"/><text x="36.0" y="823.2" font-family="IBM Plex Sans Thai" font-size="17" font-weight="500" fill="#1F2937" text-anchor="start">จัดเวรใหม่เมื่อลาป่วย (เร็วๆ นี้)</text><line x1="452.8" y1="817.4" x2="468.8" y2="817.4" stroke="#94A3B8" stroke-width="3" stroke-linecap="round"/><line x1="582.4" y1="817.4" x2="598.4" y2="817.4" stroke="#94A3B8" stroke-width="3" stroke-linecap="round"/><path d="M 711.0 817.4 l 6 6 l 12 -14" stroke="#0F9488" stroke-width="3.4" fill="none" stroke-linecap="round" stroke-linejoin="round"/><path d="M 840.6 817.4 l 6 6 l 12 -14" stroke="#0F9488" stroke-width="3.4" fill="none" stroke-linecap="round" stroke-linejoin="round"/><path d="M 970.2 817.4 l 6 6 l 12 -14" stroke="#0F9488" stroke-width="3.4" fill="none" stroke-linecap="round" stroke-linejoin="round"/><rect x="36.0" y="843.2" width="1008.0" height="51.7" fill="#FFFFFF" rx="0" /><text x="36.0" y="875.9" font-family="IBM Plex Sans Thai" font-size="20" font-weight="500" fill="#1F2937" text-anchor="start">วางแผนหลายเดือน</text><line x1="452.8" y1="869.1" x2="468.8" y2="869.1" stroke="#94A3B8" stroke-width="3" stroke-linecap="round"/><line x1="582.4" y1="869.1" x2="598.4" y2="869.1" stroke="#94A3B8" stroke-width="3" stroke-linecap="round"/><line x1="712.0" y1="869.1" x2="728.0" y2="869.1" stroke="#94A3B8" stroke-width="3" stroke-linecap="round"/><path d="M 840.6 869.1 l 6 6 l 12 -14" stroke="#0F9488" stroke-width="3.4" fill="none" stroke-linecap="round" stroke-linejoin="round"/><path d="M 970.2 869.1 l 6 6 l 12 -14" stroke="#0F9488" stroke-width="3.4" fill="none" stroke-linecap="round" stroke-linejoin="round"/><text x="36.0" y="927.6" font-family="IBM Plex Sans Thai" font-size="20" font-weight="500" fill="#1F2937" text-anchor="start">กําหนดกฎเอง (custom)</text><line x1="452.8" y1="920.8" x2="468.8" y2="920.8" stroke="#94A3B8" stroke-width="3" stroke-linecap="round"/><line x1="582.4" y1="920.8" x2="598.4" y2="920.8" stroke="#94A3B8" stroke-width="3" stroke-linecap="round"/><line x1="712.0" y1="920.8" x2="728.0" y2="920.8" stroke="#94A3B8" stroke-width="3" stroke-linecap="round"/><path d="M 840.6 920.8 l 6 6 l 12 -14" stroke="#0F9488" stroke-width="3.4" fill="none" stroke-linecap="round" stroke-linejoin="round"/><path d="M 970.2 920.8 l 6 6 l 12 -14" stroke="#0F9488" stroke-width="3.4" fill="none" stroke-linecap="round" stroke-linejoin="round"/><rect x="36.0" y="946.6" width="1008.0" height="51.7" fill="#FFFFFF" rx="0" /><text x="36.0" y="978.2" font-family="IBM Plex Sans Thai" font-size="17" font-weight="500" fill="#1F2937" text-anchor="start">หลายวอร์ด + แดชบอร์ดผู้บริหาร</text><line x1="452.8" y1="972.5" x2="468.8" y2="972.5" stroke="#94A3B8" stroke-width="3" stroke-linecap="round"/><line x1="582.4" y1="972.5" x2="598.4" y2="972.5" stroke="#94A3B8" stroke-width="3" stroke-linecap="round"/><line x1="712.0" y1="972.5" x2="728.0" y2="972.5" stroke="#94A3B8" stroke-width="3" stroke-linecap="round"/><line x1="841.6" y1="972.5" x2="857.6" y2="972.5" stroke="#94A3B8" stroke-width="3" stroke-linecap="round"/><path d="M 970.2 972.5 l 6 6 l 12 -14" stroke="#0F9488" stroke-width="3.4" fill="none" stroke-linecap="round" stroke-linejoin="round"/><text x="36.0" y="1031.0" font-family="IBM Plex Sans Thai" font-size="20" font-weight="500" fill="#1F2937" text-anchor="start">การซัพพอร์ต</text><text x="460.8" y="1029.9" font-family="IBM Plex Sans Thai" font-size="17" font-weight="500" fill="#1F2937" text-anchor="middle">ชุมชน</text><text x="590.4" y="1029.9" font-family="IBM Plex Sans Thai" font-size="17" font-weight="500" fill="#1F2937" text-anchor="middle">อีเมล</text><text x="720.0" y="1029.9" font-family="IBM Plex Sans Thai" font-size="17" font-weight="500" fill="#1F2937" text-anchor="middle">อีเมล</text><text x="849.6" y="1028.9" font-family="IBM Plex Sans Thai" font-size="14" font-weight="500" fill="#1F2937" text-anchor="middle">ลําดับสําคัญ</text><text x="979.2" y="1028.9" font-family="IBM Plex Sans Thai" font-size="14" font-weight="500" fill="#1F2937" text-anchor="middle">สําคัญ+ตั้งค่า</text><line x1="36" y1="429.7" x2="1044" y2="429.7" stroke="#E5E7EB" stroke-width="1" opacity="0.55"/><line x1="36" y1="481.4" x2="1044" y2="481.4" stroke="#E5E7EB" stroke-width="1" opacity="0.55"/><line x1="36" y1="533.1" x2="1044" y2="533.1" stroke="#E5E7EB" stroke-width="1" opacity="0.55"/><line x1="36" y1="584.8" x2="1044" y2="584.8" stroke="#E5E7EB" stroke-width="1" opacity="0.55"/><line x1="36" y1="636.5" x2="1044" y2="636.5" stroke="#E5E7EB" stroke-width="1" opacity="0.55"/><line x1="36" y1="688.2" x2="1044" y2="688.2" stroke="#E5E7EB" stroke-width="1" opacity="0.55"/><line x1="36" y1="739.8" x2="1044" y2="739.8" stroke="#E5E7EB" stroke-width="1" opacity="0.55"/><line x1="36" y1="791.5" x2="1044" y2="791.5" stroke="#E5E7EB" stroke-width="1" opacity="0.55"/><line x1="36" y1="843.2" x2="1044" y2="843.2" stroke="#E5E7EB" stroke-width="1" opacity="0.55"/><line x1="36" y1="894.9" x2="1044" y2="894.9" stroke="#E5E7EB" stroke-width="1" opacity="0.55"/><line x1="36" y1="946.6" x2="1044" y2="946.6" stroke="#E5E7EB" stroke-width="1" opacity="0.55"/><line x1="36" y1="998.3" x2="1044" y2="998.3" stroke="#E5E7EB" stroke-width="1" opacity="0.55"/></svg>